<?xml version="1.0" encoding="utf-8" standalone="no"?>
<!DOCTYPE svg PUBLIC "-//W3C//DTD SVG 1.1//EN"
  "http://www.w3.org/Graphics/SVG/1.1/DTD/svg11.dtd">
<svg height="1800pt" version="1.1" viewBox="0 0 1080 1800" width="1080pt" xmlns="http://www.w3.org/2000/svg" xmlns:xlink="http://www.w3.org/1999/xlink">
 <metadata>
  <rdf:RDF xmlns:cc="http://creativecommons.org/ns#" xmlns:dc="http://purl.org/dc/elements/1.1/" xmlns:rdf="http://www.w3.org/1999/02/22-rdf-syntax-ns#">
   <cc:Work>
    <dc:type rdf:resource="http://purl.org/dc/dcmitype/StillImage"/>
    <dc:date>2022-04-06T19:01:03.056913</dc:date>
    <dc:format>image/svg+xml</dc:format>
    <dc:creator>
     <cc:Agent>
      <dc:title>Matplotlib v3.4.3, https://matplotlib.org/</dc:title>
     </cc:Agent>
    </dc:creator>
   </cc:Work>
  </rdf:RDF>
 </metadata>
 <defs>
  <style type="text/css">*{stroke-linecap:butt;stroke-linejoin:round;}</style>
 </defs>
 <g id="figure_1">
  <g id="patch_1">
   <path d="M 0 1800 
L 1080 1800 
L 1080 0 
L 0 0 
z
" style="fill:#ffffff;"/>
  </g>
  <g id="axes_1">
   <g id="patch_2">
    <path clip-path="url(#p4b7cce4a4c)" d="M 241.732153 1636.326864 
Q 202.567262 1569.420175 163.967178 1503.478365 
" style="fill:none;stroke:#000000;stroke-linecap:round;"/>
    <path clip-path="url(#p4b7cce4a4c)" d="M 164.114522 1505.709573 
L 163.967178 1503.478365 
L 165.840551 1504.699215 
L 164.114522 1505.709573 
z
" style="stroke:#000000;stroke-linecap:round;"/>
   </g>
   <g id="patch_3">
    <path clip-path="url(#p4b7cce4a4c)" d="M 254.576923 1641.993108 
Q 594.423491 1569.421705 933.176676 1497.083786 
" style="fill:none;stroke:#000000;stroke-linecap:round;"/>
    <path clip-path="url(#p4b7cce4a4c)" d="M 931.01194 1496.523501 
L 933.176676 1497.083786 
L 931.429607 1498.479404 
L 931.01194 1496.523501 
z
" style="stroke:#000000;stroke-linecap:round;"/>
   </g>
   <g id="patch_4">
    <path clip-path="url(#p4b7cce4a4c)" d="M 157.774771 1486.47471 
Q 148.143737 1420.662641 138.674593 1355.956823 
" style="fill:none;stroke:#000000;stroke-linecap:round;"/>
    <path clip-path="url(#p4b7cce4a4c)" d="M 137.97473 1358.080545 
L 138.674593 1355.956823 
L 139.953652 1357.790946 
L 137.97473 1358.080545 
z
" style="stroke:#000000;stroke-linecap:round;"/>
   </g>
   <g id="patch_5">
    <path clip-path="url(#p4b7cce4a4c)" d="M 162.510341 1487.110283 
Q 191.683492 1420.660329 220.407204 1355.234096 
" style="fill:none;stroke:#000000;stroke-linecap:round;"/>
    <path clip-path="url(#p4b7cce4a4c)" d="M 218.68758 1356.663394 
L 220.407204 1355.234096 
L 220.518868 1357.467375 
L 218.68758 1356.663394 
z
" style="stroke:#000000;stroke-linecap:round;"/>
   </g>
   <g id="patch_6">
    <path clip-path="url(#p4b7cce4a4c)" d="M 136.004967 1337.71438 
Q 126.373932 1271.902311 116.904788 1207.196493 
" style="fill:none;stroke:#000000;stroke-linecap:round;"/>
    <path clip-path="url(#p4b7cce4a4c)" d="M 116.204925 1209.320214 
L 116.904788 1207.196493 
L 118.183848 1209.030616 
L 116.204925 1209.320214 
z
" style="stroke:#000000;stroke-linecap:round;"/>
   </g>
   <g id="patch_7">
    <path clip-path="url(#p4b7cce4a4c)" d="M 114.235162 1188.954049 
Q 104.604128 1123.14198 95.134984 1058.436162 
" style="fill:none;stroke:#000000;stroke-linecap:round;"/>
    <path clip-path="url(#p4b7cce4a4c)" d="M 94.435121 1060.559884 
L 95.134984 1058.436162 
L 96.414043 1060.270285 
L 94.435121 1060.559884 
z
" style="stroke:#000000;stroke-linecap:round;"/>
   </g>
   <g id="patch_8">
    <path clip-path="url(#p4b7cce4a4c)" d="M 223.084185 1337.71438 
Q 213.45315 1271.902311 203.984006 1207.196493 
" style="fill:none;stroke:#000000;stroke-linecap:round;"/>
    <path clip-path="url(#p4b7cce4a4c)" d="M 203.284143 1209.320214 
L 203.984006 1207.196493 
L 205.263065 1209.030616 
L 203.284143 1209.320214 
z
" style="stroke:#000000;stroke-linecap:round;"/>
   </g>
   <g id="patch_9">
    <path clip-path="url(#p4b7cce4a4c)" d="M 201.31438 1188.954049 
Q 191.683346 1123.14198 182.214202 1058.436162 
" style="fill:none;stroke:#000000;stroke-linecap:round;"/>
    <path clip-path="url(#p4b7cce4a4c)" d="M 181.514339 1060.559884 
L 182.214202 1058.436162 
L 183.493261 1060.270285 
L 181.514339 1060.559884 
z
" style="stroke:#000000;stroke-linecap:round;"/>
   </g>
   <g id="patch_10">
    <path clip-path="url(#p4b7cce4a4c)" d="M 934.590163 1492.109743 
Q 735.928355 1420.661198 538.318609 1349.591026 
" style="fill:none;stroke:#000000;stroke-linecap:round;"/>
    <path clip-path="url(#p4b7cce4a4c)" d="M 539.862167 1351.208873 
L 538.318609 1349.591026 
L 540.539021 1349.326888 
L 539.862167 1351.208873 
z
" style="stroke:#000000;stroke-linecap:round;"/>
   </g>
   <g id="patch_11">
    <path clip-path="url(#p4b7cce4a4c)" d="M 945.174275 1486.728939 
Q 964.511418 1420.66037 983.534506 1355.664819 
" style="fill:none;stroke:#000000;stroke-linecap:round;"/>
    <path clip-path="url(#p4b7cce4a4c)" d="M 982.012971 1357.303395 
L 983.534506 1355.664819 
L 983.932446 1357.865193 
L 982.012971 1357.303395 
z
" style="stroke:#000000;stroke-linecap:round;"/>
   </g>
   <g id="patch_12">
    <path clip-path="url(#p4b7cce4a4c)" d="M 527.861447 1337.71438 
Q 518.230413 1271.902311 508.761269 1207.196493 
" style="fill:none;stroke:#000000;stroke-linecap:round;"/>
    <path clip-path="url(#p4b7cce4a4c)" d="M 508.061406 1209.320214 
L 508.761269 1207.196493 
L 510.040328 1209.030616 
L 508.061406 1209.320214 
z
" style="stroke:#000000;stroke-linecap:round;"/>
   </g>
   <g id="patch_13">
    <path clip-path="url(#p4b7cce4a4c)" d="M 537.213999 1343.206409 
Q 725.045053 1271.900175 911.830858 1200.990749 
" style="fill:none;stroke:#000000;stroke-linecap:round;"/>
    <path clip-path="url(#p4b7cce4a4c)" d="M 909.606146 1200.765681 
L 911.830858 1200.990749 
L 910.315976 1202.635478 
L 909.606146 1200.765681 
z
" style="stroke:#000000;stroke-linecap:round;"/>
   </g>
   <g id="patch_14">
    <path clip-path="url(#p4b7cce4a4c)" d="M 502.969807 1190.045872 
Q 463.804916 1123.139183 425.204832 1057.197373 
" style="fill:none;stroke:#000000;stroke-linecap:round;"/>
    <path clip-path="url(#p4b7cce4a4c)" d="M 425.352176 1059.428581 
L 425.204832 1057.197373 
L 427.078205 1058.418223 
L 425.352176 1059.428581 
z
" style="stroke:#000000;stroke-linecap:round;"/>
   </g>
   <g id="patch_15">
    <path clip-path="url(#p4b7cce4a4c)" d="M 414.5519 1042.25252 
Q 354.957462 974.381077 296.100704 907.349769 
" style="fill:none;stroke:#000000;stroke-linecap:round;"/>
    <path clip-path="url(#p4b7cce4a4c)" d="M 296.668866 909.51245 
L 296.100704 907.349769 
L 298.171747 908.192848 
L 296.668866 909.51245 
z
" style="stroke:#000000;stroke-linecap:round;"/>
   </g>
   <g id="patch_16">
    <path clip-path="url(#p4b7cce4a4c)" d="M 422.698968 1040.447948 
Q 442.03611 974.379378 461.059198 909.383827 
" style="fill:none;stroke:#000000;stroke-linecap:round;"/>
    <path clip-path="url(#p4b7cce4a4c)" d="M 459.537663 911.022404 
L 461.059198 909.383827 
L 461.457138 911.584201 
L 459.537663 911.022404 
z
" style="stroke:#000000;stroke-linecap:round;"/>
   </g>
   <g id="patch_17">
    <path clip-path="url(#p4b7cce4a4c)" d="M 288.393598 891.433388 
Q 278.762564 825.621319 269.293419 760.915501 
" style="fill:none;stroke:#000000;stroke-linecap:round;"/>
    <path clip-path="url(#p4b7cce4a4c)" d="M 268.593557 763.039222 
L 269.293419 760.915501 
L 270.572479 762.749624 
L 268.593557 763.039222 
z
" style="stroke:#000000;stroke-linecap:round;"/>
   </g>
   <g id="patch_18">
    <path clip-path="url(#p4b7cce4a4c)" d="M 294.761173 893.01097 
Q 344.071592 825.620064 392.721801 759.131445 
" style="fill:none;stroke:#000000;stroke-linecap:round;"/>
    <path clip-path="url(#p4b7cce4a4c)" d="M 390.733751 760.154995 
L 392.721801 759.131445 
L 392.347812 761.336015 
L 390.733751 760.154995 
z
" style="stroke:#000000;stroke-linecap:round;"/>
   </g>
   <g id="patch_19">
    <path clip-path="url(#p4b7cce4a4c)" d="M 397.24262 742.673057 
Q 387.611586 676.860988 378.142442 612.155171 
" style="fill:none;stroke:#000000;stroke-linecap:round;"/>
    <path clip-path="url(#p4b7cce4a4c)" d="M 377.442579 614.278892 
L 378.142442 612.155171 
L 379.421501 613.989294 
L 377.442579 614.278892 
z
" style="stroke:#000000;stroke-linecap:round;"/>
   </g>
   <g id="patch_20">
    <path clip-path="url(#p4b7cce4a4c)" d="M 375.472816 593.912727 
Q 365.841781 528.100658 356.372637 463.39484 
" style="fill:none;stroke:#000000;stroke-linecap:round;"/>
    <path clip-path="url(#p4b7cce4a4c)" d="M 355.672775 465.518561 
L 356.372637 463.39484 
L 357.651697 465.228963 
L 355.672775 465.518561 
z
" style="stroke:#000000;stroke-linecap:round;"/>
   </g>
   <g id="patch_21">
    <path clip-path="url(#p4b7cce4a4c)" d="M 353.703011 445.152396 
Q 344.071977 379.340327 334.602833 314.634509 
" style="fill:none;stroke:#000000;stroke-linecap:round;"/>
    <path clip-path="url(#p4b7cce4a4c)" d="M 333.90297 316.758231 
L 334.602833 314.634509 
L 335.881892 316.468632 
L 333.90297 316.758231 
z
" style="stroke:#000000;stroke-linecap:round;"/>
   </g>
   <g id="patch_22">
    <path clip-path="url(#p4b7cce4a4c)" d="M 331.933207 296.392066 
Q 322.302172 230.579997 312.833028 165.874179 
" style="fill:none;stroke:#000000;stroke-linecap:round;"/>
    <path clip-path="url(#p4b7cce4a4c)" d="M 312.133166 167.9979 
L 312.833028 165.874179 
L 314.112088 167.708302 
L 312.133166 167.9979 
z
" style="stroke:#000000;stroke-linecap:round;"/>
   </g>
   <g id="patch_23">
    <path clip-path="url(#p4b7cce4a4c)" d="M 462.552034 891.433388 
Q 452.920999 825.621319 443.451855 760.915501 
" style="fill:none;stroke:#000000;stroke-linecap:round;"/>
    <path clip-path="url(#p4b7cce4a4c)" d="M 442.751993 763.039222 
L 443.451855 760.915501 
L 444.730915 762.749624 
L 442.751993 763.039222 
z
" style="stroke:#000000;stroke-linecap:round;"/>
   </g>
   <g id="patch_24">
    <path clip-path="url(#p4b7cce4a4c)" d="M 465.059335 891.433388 
Q 474.690369 825.621319 484.159513 760.915501 
" style="fill:none;stroke:#000000;stroke-linecap:round;"/>
    <path clip-path="url(#p4b7cce4a4c)" d="M 482.880454 762.749624 
L 484.159513 760.915501 
L 484.859376 763.039222 
L 482.880454 762.749624 
z
" style="stroke:#000000;stroke-linecap:round;"/>
   </g>
   <g id="patch_25">
    <path clip-path="url(#p4b7cce4a4c)" d="M 913.306505 1193.491584 
Q 779.469082 1123.141144 646.621303 1053.310901 
" style="fill:none;stroke:#000000;stroke-linecap:round;"/>
    <path clip-path="url(#p4b7cce4a4c)" d="M 647.926353 1055.126623 
L 646.621303 1053.310901 
L 648.85691 1053.356294 
L 647.926353 1055.126623 
z
" style="stroke:#000000;stroke-linecap:round;"/>
   </g>
   <g id="patch_26">
    <path clip-path="url(#p4b7cce4a4c)" d="M 635.531228 1040.447948 
Q 616.194085 974.379378 597.170997 909.383827 
" style="fill:none;stroke:#000000;stroke-linecap:round;"/>
    <path clip-path="url(#p4b7cce4a4c)" d="M 596.773057 911.584201 
L 597.170997 909.383827 
L 598.692532 911.022404 
L 596.773057 911.584201 
z
" style="stroke:#000000;stroke-linecap:round;"/>
   </g>
   <g id="patch_27">
    <path clip-path="url(#p4b7cce4a4c)" d="M 645.115974 1043.87323 
Q 746.814963 974.378921 847.590853 905.515396 
" style="fill:none;stroke:#000000;stroke-linecap:round;"/>
    <path clip-path="url(#p4b7cce4a4c)" d="M 845.375374 905.818133 
L 847.590853 905.515396 
L 846.503755 907.469422 
L 845.375374 905.818133 
z
" style="stroke:#000000;stroke-linecap:round;"/>
   </g>
   <g id="patch_28">
    <path clip-path="url(#p4b7cce4a4c)" d="M 593.170861 891.433388 
Q 583.539826 825.621319 574.070682 760.915501 
" style="fill:none;stroke:#000000;stroke-linecap:round;"/>
    <path clip-path="url(#p4b7cce4a4c)" d="M 573.370819 763.039222 
L 574.070682 760.915501 
L 575.349742 762.749624 
L 573.370819 763.039222 
z
" style="stroke:#000000;stroke-linecap:round;"/>
   </g>
   <g id="patch_29">
    <path clip-path="url(#p4b7cce4a4c)" d="M 595.678162 891.433388 
Q 605.309196 825.621319 614.77834 760.915501 
" style="fill:none;stroke:#000000;stroke-linecap:round;"/>
    <path clip-path="url(#p4b7cce4a4c)" d="M 613.499281 762.749624 
L 614.77834 760.915501 
L 615.478203 763.039222 
L 613.499281 762.749624 
z
" style="stroke:#000000;stroke-linecap:round;"/>
   </g>
   <g id="patch_30">
    <path clip-path="url(#p4b7cce4a4c)" d="M 571.401056 742.673057 
Q 561.770022 676.860988 552.300878 612.155171 
" style="fill:none;stroke:#000000;stroke-linecap:round;"/>
    <path clip-path="url(#p4b7cce4a4c)" d="M 551.601015 614.278892 
L 552.300878 612.155171 
L 553.579937 613.989294 
L 551.601015 614.278892 
z
" style="stroke:#000000;stroke-linecap:round;"/>
   </g>
   <g id="patch_31">
    <path clip-path="url(#p4b7cce4a4c)" d="M 849.465331 893.95071 
Q 779.469004 825.620962 710.272712 758.072201 
" style="fill:none;stroke:#000000;stroke-linecap:round;"/>
    <path clip-path="url(#p4b7cce4a4c)" d="M 711.005324 760.184849 
L 710.272712 758.072201 
L 712.402398 758.7537 
L 711.005324 760.184849 
z
" style="stroke:#000000;stroke-linecap:round;"/>
   </g>
   <g id="patch_32">
    <path clip-path="url(#p4b7cce4a4c)" d="M 858.095057 891.687617 
Q 877.4322 825.619047 896.455288 760.623497 
" style="fill:none;stroke:#000000;stroke-linecap:round;"/>
    <path clip-path="url(#p4b7cce4a4c)" d="M 894.933753 762.262073 
L 896.455288 760.623497 
L 896.853228 762.82387 
L 894.933753 762.262073 
z
" style="stroke:#000000;stroke-linecap:round;"/>
   </g>
   <g id="patch_33">
    <path clip-path="url(#p4b7cce4a4c)" d="M 702.019883 742.673057 
Q 692.388849 676.860988 682.919704 612.155171 
" style="fill:none;stroke:#000000;stroke-linecap:round;"/>
    <path clip-path="url(#p4b7cce4a4c)" d="M 682.219842 614.278892 
L 682.919704 612.155171 
L 684.198764 613.989294 
L 682.219842 614.278892 
z
" style="stroke:#000000;stroke-linecap:round;"/>
   </g>
   <g id="patch_34">
    <path clip-path="url(#p4b7cce4a4c)" d="M 707.64902 743.76488 
Q 746.813911 676.858191 785.413995 610.916382 
" style="fill:none;stroke:#000000;stroke-linecap:round;"/>
    <path clip-path="url(#p4b7cce4a4c)" d="M 783.540622 612.137231 
L 785.413995 610.916382 
L 785.266651 613.14759 
L 783.540622 612.137231 
z
" style="stroke:#000000;stroke-linecap:round;"/>
   </g>
   <g id="patch_35">
    <path clip-path="url(#p4b7cce4a4c)" d="M 680.250079 593.912727 
Q 670.619044 528.100658 661.1499 463.39484 
" style="fill:none;stroke:#000000;stroke-linecap:round;"/>
    <path clip-path="url(#p4b7cce4a4c)" d="M 660.450037 465.518561 
L 661.1499 463.39484 
L 662.428959 465.228963 
L 660.450037 465.518561 
z
" style="stroke:#000000;stroke-linecap:round;"/>
   </g>
   <g id="patch_36">
    <path clip-path="url(#p4b7cce4a4c)" d="M 787.919859 594.166956 
Q 768.582717 528.098386 749.559629 463.102836 
" style="fill:none;stroke:#000000;stroke-linecap:round;"/>
    <path clip-path="url(#p4b7cce4a4c)" d="M 749.161689 465.303209 
L 749.559629 463.102836 
L 751.081164 464.741412 
L 749.161689 465.303209 
z
" style="stroke:#000000;stroke-linecap:round;"/>
   </g>
   <g id="patch_37">
    <path clip-path="url(#p4b7cce4a4c)" d="M 792.785644 594.166956 
Q 812.122786 528.098386 831.145874 463.102836 
" style="fill:none;stroke:#000000;stroke-linecap:round;"/>
    <path clip-path="url(#p4b7cce4a4c)" d="M 829.624339 464.741412 
L 831.145874 463.102836 
L 831.543814 465.303209 
L 829.624339 464.741412 
z
" style="stroke:#000000;stroke-linecap:round;"/>
   </g>
   <g id="patch_38">
    <path clip-path="url(#p4b7cce4a4c)" d="M 745.559492 445.152396 
Q 735.928457 379.340327 726.459313 314.634509 
" style="fill:none;stroke:#000000;stroke-linecap:round;"/>
    <path clip-path="url(#p4b7cce4a4c)" d="M 725.759451 316.758231 
L 726.459313 314.634509 
L 727.738373 316.468632 
L 725.759451 316.758231 
z
" style="stroke:#000000;stroke-linecap:round;"/>
   </g>
   <g id="patch_39">
    <path clip-path="url(#p4b7cce4a4c)" d="M 748.066793 445.152396 
Q 757.697828 379.340327 767.166972 314.634509 
" style="fill:none;stroke:#000000;stroke-linecap:round;"/>
    <path clip-path="url(#p4b7cce4a4c)" d="M 765.887912 316.468632 
L 767.166972 314.634509 
L 767.866834 316.758231 
L 765.887912 316.468632 
z
" style="stroke:#000000;stroke-linecap:round;"/>
   </g>
   <g id="patch_40">
    <path clip-path="url(#p4b7cce4a4c)" d="M 832.63871 445.152396 
Q 823.007675 379.340327 813.538531 314.634509 
" style="fill:none;stroke:#000000;stroke-linecap:round;"/>
    <path clip-path="url(#p4b7cce4a4c)" d="M 812.838669 316.758231 
L 813.538531 314.634509 
L 814.817591 316.468632 
L 812.838669 316.758231 
z
" style="stroke:#000000;stroke-linecap:round;"/>
   </g>
   <g id="patch_41">
    <path clip-path="url(#p4b7cce4a4c)" d="M 897.948123 742.673057 
Q 888.317089 676.860988 878.847945 612.155171 
" style="fill:none;stroke:#000000;stroke-linecap:round;"/>
    <path clip-path="url(#p4b7cce4a4c)" d="M 878.148082 614.278892 
L 878.847945 612.155171 
L 880.127004 613.989294 
L 878.148082 614.278892 
z
" style="stroke:#000000;stroke-linecap:round;"/>
   </g>
   <g id="patch_42">
    <path clip-path="url(#p4b7cce4a4c)" d="M 985.027341 1337.71438 
Q 975.396307 1271.902311 965.927163 1207.196493 
" style="fill:none;stroke:#000000;stroke-linecap:round;"/>
    <path clip-path="url(#p4b7cce4a4c)" d="M 965.2273 1209.320214 
L 965.927163 1207.196493 
L 967.206222 1209.030616 
L 965.2273 1209.320214 
z
" style="stroke:#000000;stroke-linecap:round;"/>
   </g>
   <g id="PathCollection_1">
    <defs>
     <path d="M 0 8.660254 
C 2.296726 8.660254 4.499694 7.747755 6.123724 6.123724 
C 7.747755 4.499694 8.660254 2.296726 8.660254 0 
C 8.660254 -2.296726 7.747755 -4.499694 6.123724 -6.123724 
C 4.499694 -7.747755 2.296726 -8.660254 0 -8.660254 
C -2.296726 -8.660254 -4.499694 -7.747755 -6.123724 -6.123724 
C -7.747755 -4.499694 -8.660254 -2.296726 -8.660254 0 
C -8.660254 2.296726 -7.747755 4.499694 -6.123724 6.123724 
C -4.499694 7.747755 -2.296726 8.660254 0 8.660254 
z
" id="m91a244a8bb" style="stroke:#1f78b4;"/>
    </defs>
    <g clip-path="url(#p4b7cce4a4c)">
     <use style="fill:#1f78b4;stroke:#1f78b4;" x="246.10764" xlink:href="#m91a244a8bb" y="1643.801653"/>
     <use style="fill:#1f78b4;stroke:#1f78b4;" x="159.028422" xlink:href="#m91a244a8bb" y="1495.041322"/>
     <use style="fill:#1f78b4;stroke:#1f78b4;" x="137.258617" xlink:href="#m91a244a8bb" y="1346.280992"/>
     <use style="fill:#1f78b4;stroke:#1f78b4;" x="115.488813" xlink:href="#m91a244a8bb" y="1197.520661"/>
     <use style="fill:#1f78b4;stroke:#1f78b4;" x="93.719008" xlink:href="#m91a244a8bb" y="1048.760331"/>
     <use style="fill:#1f78b4;stroke:#1f78b4;" x="224.337835" xlink:href="#m91a244a8bb" y="1346.280992"/>
     <use style="fill:#1f78b4;stroke:#1f78b4;" x="202.568031" xlink:href="#m91a244a8bb" y="1197.520661"/>
     <use style="fill:#1f78b4;stroke:#1f78b4;" x="180.798226" xlink:href="#m91a244a8bb" y="1048.760331"/>
     <use style="fill:#1f78b4;stroke:#1f78b4;" x="942.741383" xlink:href="#m91a244a8bb" y="1495.041322"/>
     <use style="fill:#1f78b4;stroke:#1f78b4;" x="529.115098" xlink:href="#m91a244a8bb" y="1346.280992"/>
     <use style="fill:#1f78b4;stroke:#1f78b4;" x="507.345293" xlink:href="#m91a244a8bb" y="1197.520661"/>
     <use style="fill:#1f78b4;stroke:#1f78b4;" x="420.266075" xlink:href="#m91a244a8bb" y="1048.760331"/>
     <use style="fill:#1f78b4;stroke:#1f78b4;" x="289.647249" xlink:href="#m91a244a8bb" y="900"/>
     <use style="fill:#1f78b4;stroke:#1f78b4;" x="267.877444" xlink:href="#m91a244a8bb" y="751.239669"/>
     <use style="fill:#1f78b4;stroke:#1f78b4;" x="398.496271" xlink:href="#m91a244a8bb" y="751.239669"/>
     <use style="fill:#1f78b4;stroke:#1f78b4;" x="376.726466" xlink:href="#m91a244a8bb" y="602.479339"/>
     <use style="fill:#1f78b4;stroke:#1f78b4;" x="354.956662" xlink:href="#m91a244a8bb" y="453.719008"/>
     <use style="fill:#1f78b4;stroke:#1f78b4;" x="333.186857" xlink:href="#m91a244a8bb" y="304.958678"/>
     <use style="fill:#1f78b4;stroke:#1f78b4;" x="311.417053" xlink:href="#m91a244a8bb" y="156.198347"/>
     <use style="fill:#1f78b4;stroke:#1f78b4;" x="463.805684" xlink:href="#m91a244a8bb" y="900"/>
     <use style="fill:#1f78b4;stroke:#1f78b4;" x="442.03588" xlink:href="#m91a244a8bb" y="751.239669"/>
     <use style="fill:#1f78b4;stroke:#1f78b4;" x="485.575489" xlink:href="#m91a244a8bb" y="751.239669"/>
     <use style="fill:#1f78b4;stroke:#1f78b4;" x="920.971578" xlink:href="#m91a244a8bb" y="1197.520661"/>
     <use style="fill:#1f78b4;stroke:#1f78b4;" x="637.96412" xlink:href="#m91a244a8bb" y="1048.760331"/>
     <use style="fill:#1f78b4;stroke:#1f78b4;" x="594.424511" xlink:href="#m91a244a8bb" y="900"/>
     <use style="fill:#1f78b4;stroke:#1f78b4;" x="572.654707" xlink:href="#m91a244a8bb" y="751.239669"/>
     <use style="fill:#1f78b4;stroke:#1f78b4;" x="550.884902" xlink:href="#m91a244a8bb" y="602.479339"/>
     <use style="fill:#1f78b4;stroke:#1f78b4;" x="616.194316" xlink:href="#m91a244a8bb" y="751.239669"/>
     <use style="fill:#1f78b4;stroke:#1f78b4;" x="855.662165" xlink:href="#m91a244a8bb" y="900"/>
     <use style="fill:#1f78b4;stroke:#1f78b4;" x="703.273534" xlink:href="#m91a244a8bb" y="751.239669"/>
     <use style="fill:#1f78b4;stroke:#1f78b4;" x="681.503729" xlink:href="#m91a244a8bb" y="602.479339"/>
     <use style="fill:#1f78b4;stroke:#1f78b4;" x="659.733925" xlink:href="#m91a244a8bb" y="453.719008"/>
     <use style="fill:#1f78b4;stroke:#1f78b4;" x="790.352751" xlink:href="#m91a244a8bb" y="602.479339"/>
     <use style="fill:#1f78b4;stroke:#1f78b4;" x="746.813143" xlink:href="#m91a244a8bb" y="453.719008"/>
     <use style="fill:#1f78b4;stroke:#1f78b4;" x="725.043338" xlink:href="#m91a244a8bb" y="304.958678"/>
     <use style="fill:#1f78b4;stroke:#1f78b4;" x="768.582947" xlink:href="#m91a244a8bb" y="304.958678"/>
     <use style="fill:#1f78b4;stroke:#1f78b4;" x="833.89236" xlink:href="#m91a244a8bb" y="453.719008"/>
     <use style="fill:#1f78b4;stroke:#1f78b4;" x="812.122556" xlink:href="#m91a244a8bb" y="304.958678"/>
     <use style="fill:#1f78b4;stroke:#1f78b4;" x="899.201774" xlink:href="#m91a244a8bb" y="751.239669"/>
     <use style="fill:#1f78b4;stroke:#1f78b4;" x="877.431969" xlink:href="#m91a244a8bb" y="602.479339"/>
     <use style="fill:#1f78b4;stroke:#1f78b4;" x="986.280992" xlink:href="#m91a244a8bb" y="1346.280992"/>
     <use style="fill:#1f78b4;stroke:#1f78b4;" x="964.511187" xlink:href="#m91a244a8bb" y="1197.520661"/>
    </g>
   </g>
   <g id="text_1">
    <g clip-path="url(#p4b7cce4a4c)">
     <!-- n0 -->
     <g transform="translate(238.48764 1647.112903)scale(0.12 -0.12)">
      <defs>
       <path d="M 3513 2113 
L 3513 0 
L 2938 0 
L 2938 2094 
Q 2938 2591 2744 2837 
Q 2550 3084 2163 3084 
Q 1697 3084 1428 2787 
Q 1159 2491 1159 1978 
L 1159 0 
L 581 0 
L 581 3500 
L 1159 3500 
L 1159 2956 
Q 1366 3272 1645 3428 
Q 1925 3584 2291 3584 
Q 2894 3584 3203 3211 
Q 3513 2838 3513 2113 
z
" id="DejaVuSans-6e" transform="scale(0.015625)"/>
       <path d="M 2034 4250 
Q 1547 4250 1301 3770 
Q 1056 3291 1056 2328 
Q 1056 1369 1301 889 
Q 1547 409 2034 409 
Q 2525 409 2770 889 
Q 3016 1369 3016 2328 
Q 3016 3291 2770 3770 
Q 2525 4250 2034 4250 
z
M 2034 4750 
Q 2819 4750 3233 4129 
Q 3647 3509 3647 2328 
Q 3647 1150 3233 529 
Q 2819 -91 2034 -91 
Q 1250 -91 836 529 
Q 422 1150 422 2328 
Q 422 3509 836 4129 
Q 1250 4750 2034 4750 
z
" id="DejaVuSans-30" transform="scale(0.015625)"/>
      </defs>
      <use xlink:href="#DejaVuSans-6e"/>
      <use x="63.378906" xlink:href="#DejaVuSans-30"/>
     </g>
    </g>
   </g>
   <g id="text_2">
    <g clip-path="url(#p4b7cce4a4c)">
     <!-- n1 -->
     <g transform="translate(151.408422 1498.352572)scale(0.12 -0.12)">
      <defs>
       <path d="M 794 531 
L 1825 531 
L 1825 4091 
L 703 3866 
L 703 4441 
L 1819 4666 
L 2450 4666 
L 2450 531 
L 3481 531 
L 3481 0 
L 794 0 
L 794 531 
z
" id="DejaVuSans-31" transform="scale(0.015625)"/>
      </defs>
      <use xlink:href="#DejaVuSans-6e"/>
      <use x="63.378906" xlink:href="#DejaVuSans-31"/>
     </g>
    </g>
   </g>
   <g id="text_3">
    <g clip-path="url(#p4b7cce4a4c)">
     <!-- n2 -->
     <g transform="translate(129.638617 1349.592242)scale(0.12 -0.12)">
      <defs>
       <path d="M 1228 531 
L 3431 531 
L 3431 0 
L 469 0 
L 469 531 
Q 828 903 1448 1529 
Q 2069 2156 2228 2338 
Q 2531 2678 2651 2914 
Q 2772 3150 2772 3378 
Q 2772 3750 2511 3984 
Q 2250 4219 1831 4219 
Q 1534 4219 1204 4116 
Q 875 4013 500 3803 
L 500 4441 
Q 881 4594 1212 4672 
Q 1544 4750 1819 4750 
Q 2544 4750 2975 4387 
Q 3406 4025 3406 3419 
Q 3406 3131 3298 2873 
Q 3191 2616 2906 2266 
Q 2828 2175 2409 1742 
Q 1991 1309 1228 531 
z
" id="DejaVuSans-32" transform="scale(0.015625)"/>
      </defs>
      <use xlink:href="#DejaVuSans-6e"/>
      <use x="63.378906" xlink:href="#DejaVuSans-32"/>
     </g>
    </g>
   </g>
   <g id="text_4">
    <g clip-path="url(#p4b7cce4a4c)">
     <!-- n3 -->
     <g transform="translate(107.868813 1200.831911)scale(0.12 -0.12)">
      <defs>
       <path d="M 2597 2516 
Q 3050 2419 3304 2112 
Q 3559 1806 3559 1356 
Q 3559 666 3084 287 
Q 2609 -91 1734 -91 
Q 1441 -91 1130 -33 
Q 819 25 488 141 
L 488 750 
Q 750 597 1062 519 
Q 1375 441 1716 441 
Q 2309 441 2620 675 
Q 2931 909 2931 1356 
Q 2931 1769 2642 2001 
Q 2353 2234 1838 2234 
L 1294 2234 
L 1294 2753 
L 1863 2753 
Q 2328 2753 2575 2939 
Q 2822 3125 2822 3475 
Q 2822 3834 2567 4026 
Q 2313 4219 1838 4219 
Q 1578 4219 1281 4162 
Q 984 4106 628 3988 
L 628 4550 
Q 988 4650 1302 4700 
Q 1616 4750 1894 4750 
Q 2613 4750 3031 4423 
Q 3450 4097 3450 3541 
Q 3450 3153 3228 2886 
Q 3006 2619 2597 2516 
z
" id="DejaVuSans-33" transform="scale(0.015625)"/>
      </defs>
      <use xlink:href="#DejaVuSans-6e"/>
      <use x="63.378906" xlink:href="#DejaVuSans-33"/>
     </g>
    </g>
   </g>
   <g id="text_5">
    <g clip-path="url(#p4b7cce4a4c)">
     <!-- n4 -->
     <g transform="translate(86.099008 1052.071581)scale(0.12 -0.12)">
      <defs>
       <path d="M 2419 4116 
L 825 1625 
L 2419 1625 
L 2419 4116 
z
M 2253 4666 
L 3047 4666 
L 3047 1625 
L 3713 1625 
L 3713 1100 
L 3047 1100 
L 3047 0 
L 2419 0 
L 2419 1100 
L 313 1100 
L 313 1709 
L 2253 4666 
z
" id="DejaVuSans-34" transform="scale(0.015625)"/>
      </defs>
      <use xlink:href="#DejaVuSans-6e"/>
      <use x="63.378906" xlink:href="#DejaVuSans-34"/>
     </g>
    </g>
   </g>
   <g id="text_6">
    <g clip-path="url(#p4b7cce4a4c)">
     <!-- n5 -->
     <g transform="translate(216.717835 1349.592242)scale(0.12 -0.12)">
      <defs>
       <path d="M 691 4666 
L 3169 4666 
L 3169 4134 
L 1269 4134 
L 1269 2991 
Q 1406 3038 1543 3061 
Q 1681 3084 1819 3084 
Q 2600 3084 3056 2656 
Q 3513 2228 3513 1497 
Q 3513 744 3044 326 
Q 2575 -91 1722 -91 
Q 1428 -91 1123 -41 
Q 819 9 494 109 
L 494 744 
Q 775 591 1075 516 
Q 1375 441 1709 441 
Q 2250 441 2565 725 
Q 2881 1009 2881 1497 
Q 2881 1984 2565 2268 
Q 2250 2553 1709 2553 
Q 1456 2553 1204 2497 
Q 953 2441 691 2322 
L 691 4666 
z
" id="DejaVuSans-35" transform="scale(0.015625)"/>
      </defs>
      <use xlink:href="#DejaVuSans-6e"/>
      <use x="63.378906" xlink:href="#DejaVuSans-35"/>
     </g>
    </g>
   </g>
   <g id="text_7">
    <g clip-path="url(#p4b7cce4a4c)">
     <!-- n6 -->
     <g transform="translate(194.948031 1200.831911)scale(0.12 -0.12)">
      <defs>
       <path d="M 2113 2584 
Q 1688 2584 1439 2293 
Q 1191 2003 1191 1497 
Q 1191 994 1439 701 
Q 1688 409 2113 409 
Q 2538 409 2786 701 
Q 3034 994 3034 1497 
Q 3034 2003 2786 2293 
Q 2538 2584 2113 2584 
z
M 3366 4563 
L 3366 3988 
Q 3128 4100 2886 4159 
Q 2644 4219 2406 4219 
Q 1781 4219 1451 3797 
Q 1122 3375 1075 2522 
Q 1259 2794 1537 2939 
Q 1816 3084 2150 3084 
Q 2853 3084 3261 2657 
Q 3669 2231 3669 1497 
Q 3669 778 3244 343 
Q 2819 -91 2113 -91 
Q 1303 -91 875 529 
Q 447 1150 447 2328 
Q 447 3434 972 4092 
Q 1497 4750 2381 4750 
Q 2619 4750 2861 4703 
Q 3103 4656 3366 4563 
z
" id="DejaVuSans-36" transform="scale(0.015625)"/>
      </defs>
      <use xlink:href="#DejaVuSans-6e"/>
      <use x="63.378906" xlink:href="#DejaVuSans-36"/>
     </g>
    </g>
   </g>
   <g id="text_8">
    <g clip-path="url(#p4b7cce4a4c)">
     <!-- n7 -->
     <g transform="translate(173.178226 1052.071581)scale(0.12 -0.12)">
      <defs>
       <path d="M 525 4666 
L 3525 4666 
L 3525 4397 
L 1831 0 
L 1172 0 
L 2766 4134 
L 525 4134 
L 525 4666 
z
" id="DejaVuSans-37" transform="scale(0.015625)"/>
      </defs>
      <use xlink:href="#DejaVuSans-6e"/>
      <use x="63.378906" xlink:href="#DejaVuSans-37"/>
     </g>
    </g>
   </g>
   <g id="text_9">
    <g clip-path="url(#p4b7cce4a4c)">
     <!-- n8 -->
     <g transform="translate(935.121383 1498.352572)scale(0.12 -0.12)">
      <defs>
       <path d="M 2034 2216 
Q 1584 2216 1326 1975 
Q 1069 1734 1069 1313 
Q 1069 891 1326 650 
Q 1584 409 2034 409 
Q 2484 409 2743 651 
Q 3003 894 3003 1313 
Q 3003 1734 2745 1975 
Q 2488 2216 2034 2216 
z
M 1403 2484 
Q 997 2584 770 2862 
Q 544 3141 544 3541 
Q 544 4100 942 4425 
Q 1341 4750 2034 4750 
Q 2731 4750 3128 4425 
Q 3525 4100 3525 3541 
Q 3525 3141 3298 2862 
Q 3072 2584 2669 2484 
Q 3125 2378 3379 2068 
Q 3634 1759 3634 1313 
Q 3634 634 3220 271 
Q 2806 -91 2034 -91 
Q 1263 -91 848 271 
Q 434 634 434 1313 
Q 434 1759 690 2068 
Q 947 2378 1403 2484 
z
M 1172 3481 
Q 1172 3119 1398 2916 
Q 1625 2713 2034 2713 
Q 2441 2713 2670 2916 
Q 2900 3119 2900 3481 
Q 2900 3844 2670 4047 
Q 2441 4250 2034 4250 
Q 1625 4250 1398 4047 
Q 1172 3844 1172 3481 
z
" id="DejaVuSans-38" transform="scale(0.015625)"/>
      </defs>
      <use xlink:href="#DejaVuSans-6e"/>
      <use x="63.378906" xlink:href="#DejaVuSans-38"/>
     </g>
    </g>
   </g>
   <g id="text_10">
    <g clip-path="url(#p4b7cce4a4c)">
     <!-- n9 -->
     <g transform="translate(521.495098 1349.592242)scale(0.12 -0.12)">
      <defs>
       <path d="M 703 97 
L 703 672 
Q 941 559 1184 500 
Q 1428 441 1663 441 
Q 2288 441 2617 861 
Q 2947 1281 2994 2138 
Q 2813 1869 2534 1725 
Q 2256 1581 1919 1581 
Q 1219 1581 811 2004 
Q 403 2428 403 3163 
Q 403 3881 828 4315 
Q 1253 4750 1959 4750 
Q 2769 4750 3195 4129 
Q 3622 3509 3622 2328 
Q 3622 1225 3098 567 
Q 2575 -91 1691 -91 
Q 1453 -91 1209 -44 
Q 966 3 703 97 
z
M 1959 2075 
Q 2384 2075 2632 2365 
Q 2881 2656 2881 3163 
Q 2881 3666 2632 3958 
Q 2384 4250 1959 4250 
Q 1534 4250 1286 3958 
Q 1038 3666 1038 3163 
Q 1038 2656 1286 2365 
Q 1534 2075 1959 2075 
z
" id="DejaVuSans-39" transform="scale(0.015625)"/>
      </defs>
      <use xlink:href="#DejaVuSans-6e"/>
      <use x="63.378906" xlink:href="#DejaVuSans-39"/>
     </g>
    </g>
   </g>
   <g id="text_11">
    <g clip-path="url(#p4b7cce4a4c)">
     <!-- n10 -->
     <g transform="translate(495.907793 1200.831911)scale(0.12 -0.12)">
      <use xlink:href="#DejaVuSans-6e"/>
      <use x="63.378906" xlink:href="#DejaVuSans-31"/>
      <use x="127.001953" xlink:href="#DejaVuSans-30"/>
     </g>
    </g>
   </g>
   <g id="text_12">
    <g clip-path="url(#p4b7cce4a4c)">
     <!-- n11 -->
     <g transform="translate(408.828575 1052.071581)scale(0.12 -0.12)">
      <use xlink:href="#DejaVuSans-6e"/>
      <use x="63.378906" xlink:href="#DejaVuSans-31"/>
      <use x="127.001953" xlink:href="#DejaVuSans-31"/>
     </g>
    </g>
   </g>
   <g id="text_13">
    <g clip-path="url(#p4b7cce4a4c)">
     <!-- n12 -->
     <g transform="translate(278.209749 903.31125)scale(0.12 -0.12)">
      <use xlink:href="#DejaVuSans-6e"/>
      <use x="63.378906" xlink:href="#DejaVuSans-31"/>
      <use x="127.001953" xlink:href="#DejaVuSans-32"/>
     </g>
    </g>
   </g>
   <g id="text_14">
    <g clip-path="url(#p4b7cce4a4c)">
     <!-- n13 -->
     <g transform="translate(256.439944 754.550919)scale(0.12 -0.12)">
      <use xlink:href="#DejaVuSans-6e"/>
      <use x="63.378906" xlink:href="#DejaVuSans-31"/>
      <use x="127.001953" xlink:href="#DejaVuSans-33"/>
     </g>
    </g>
   </g>
   <g id="text_15">
    <g clip-path="url(#p4b7cce4a4c)">
     <!-- n14 -->
     <g transform="translate(387.058771 754.550919)scale(0.12 -0.12)">
      <use xlink:href="#DejaVuSans-6e"/>
      <use x="63.378906" xlink:href="#DejaVuSans-31"/>
      <use x="127.001953" xlink:href="#DejaVuSans-34"/>
     </g>
    </g>
   </g>
   <g id="text_16">
    <g clip-path="url(#p4b7cce4a4c)">
     <!-- n15 -->
     <g transform="translate(365.288966 605.790589)scale(0.12 -0.12)">
      <use xlink:href="#DejaVuSans-6e"/>
      <use x="63.378906" xlink:href="#DejaVuSans-31"/>
      <use x="127.001953" xlink:href="#DejaVuSans-35"/>
     </g>
    </g>
   </g>
   <g id="text_17">
    <g clip-path="url(#p4b7cce4a4c)">
     <!-- n16 -->
     <g transform="translate(343.519162 457.030258)scale(0.12 -0.12)">
      <use xlink:href="#DejaVuSans-6e"/>
      <use x="63.378906" xlink:href="#DejaVuSans-31"/>
      <use x="127.001953" xlink:href="#DejaVuSans-36"/>
     </g>
    </g>
   </g>
   <g id="text_18">
    <g clip-path="url(#p4b7cce4a4c)">
     <!-- n17 -->
     <g transform="translate(321.749357 308.269928)scale(0.12 -0.12)">
      <use xlink:href="#DejaVuSans-6e"/>
      <use x="63.378906" xlink:href="#DejaVuSans-31"/>
      <use x="127.001953" xlink:href="#DejaVuSans-37"/>
     </g>
    </g>
   </g>
   <g id="text_19">
    <g clip-path="url(#p4b7cce4a4c)">
     <!-- n18 -->
     <g transform="translate(299.979553 159.509597)scale(0.12 -0.12)">
      <use xlink:href="#DejaVuSans-6e"/>
      <use x="63.378906" xlink:href="#DejaVuSans-31"/>
      <use x="127.001953" xlink:href="#DejaVuSans-38"/>
     </g>
    </g>
   </g>
   <g id="text_20">
    <g clip-path="url(#p4b7cce4a4c)">
     <!-- n19 -->
     <g transform="translate(452.368184 903.31125)scale(0.12 -0.12)">
      <use xlink:href="#DejaVuSans-6e"/>
      <use x="63.378906" xlink:href="#DejaVuSans-31"/>
      <use x="127.001953" xlink:href="#DejaVuSans-39"/>
     </g>
    </g>
   </g>
   <g id="text_21">
    <g clip-path="url(#p4b7cce4a4c)">
     <!-- n20 -->
     <g transform="translate(430.59838 754.550919)scale(0.12 -0.12)">
      <use xlink:href="#DejaVuSans-6e"/>
      <use x="63.378906" xlink:href="#DejaVuSans-32"/>
      <use x="127.001953" xlink:href="#DejaVuSans-30"/>
     </g>
    </g>
   </g>
   <g id="text_22">
    <g clip-path="url(#p4b7cce4a4c)">
     <!-- n21 -->
     <g transform="translate(474.137989 754.550919)scale(0.12 -0.12)">
      <use xlink:href="#DejaVuSans-6e"/>
      <use x="63.378906" xlink:href="#DejaVuSans-32"/>
      <use x="127.001953" xlink:href="#DejaVuSans-31"/>
     </g>
    </g>
   </g>
   <g id="text_23">
    <g clip-path="url(#p4b7cce4a4c)">
     <!-- n22 -->
     <g transform="translate(909.534078 1200.831911)scale(0.12 -0.12)">
      <use xlink:href="#DejaVuSans-6e"/>
      <use x="63.378906" xlink:href="#DejaVuSans-32"/>
      <use x="127.001953" xlink:href="#DejaVuSans-32"/>
     </g>
    </g>
   </g>
   <g id="text_24">
    <g clip-path="url(#p4b7cce4a4c)">
     <!-- n23 -->
     <g transform="translate(626.52662 1052.071581)scale(0.12 -0.12)">
      <use xlink:href="#DejaVuSans-6e"/>
      <use x="63.378906" xlink:href="#DejaVuSans-32"/>
      <use x="127.001953" xlink:href="#DejaVuSans-33"/>
     </g>
    </g>
   </g>
   <g id="text_25">
    <g clip-path="url(#p4b7cce4a4c)">
     <!-- n24 -->
     <g transform="translate(582.987011 903.31125)scale(0.12 -0.12)">
      <use xlink:href="#DejaVuSans-6e"/>
      <use x="63.378906" xlink:href="#DejaVuSans-32"/>
      <use x="127.001953" xlink:href="#DejaVuSans-34"/>
     </g>
    </g>
   </g>
   <g id="text_26">
    <g clip-path="url(#p4b7cce4a4c)">
     <!-- n25 -->
     <g transform="translate(561.217207 754.550919)scale(0.12 -0.12)">
      <use xlink:href="#DejaVuSans-6e"/>
      <use x="63.378906" xlink:href="#DejaVuSans-32"/>
      <use x="127.001953" xlink:href="#DejaVuSans-35"/>
     </g>
    </g>
   </g>
   <g id="text_27">
    <g clip-path="url(#p4b7cce4a4c)">
     <!-- n26 -->
     <g transform="translate(539.447402 605.790589)scale(0.12 -0.12)">
      <use xlink:href="#DejaVuSans-6e"/>
      <use x="63.378906" xlink:href="#DejaVuSans-32"/>
      <use x="127.001953" xlink:href="#DejaVuSans-36"/>
     </g>
    </g>
   </g>
   <g id="text_28">
    <g clip-path="url(#p4b7cce4a4c)">
     <!-- n27 -->
     <g transform="translate(604.756816 754.550919)scale(0.12 -0.12)">
      <use xlink:href="#DejaVuSans-6e"/>
      <use x="63.378906" xlink:href="#DejaVuSans-32"/>
      <use x="127.001953" xlink:href="#DejaVuSans-37"/>
     </g>
    </g>
   </g>
   <g id="text_29">
    <g clip-path="url(#p4b7cce4a4c)">
     <!-- n28 -->
     <g transform="translate(844.224665 903.31125)scale(0.12 -0.12)">
      <use xlink:href="#DejaVuSans-6e"/>
      <use x="63.378906" xlink:href="#DejaVuSans-32"/>
      <use x="127.001953" xlink:href="#DejaVuSans-38"/>
     </g>
    </g>
   </g>
   <g id="text_30">
    <g clip-path="url(#p4b7cce4a4c)">
     <!-- n29 -->
     <g transform="translate(691.836034 754.550919)scale(0.12 -0.12)">
      <use xlink:href="#DejaVuSans-6e"/>
      <use x="63.378906" xlink:href="#DejaVuSans-32"/>
      <use x="127.001953" xlink:href="#DejaVuSans-39"/>
     </g>
    </g>
   </g>
   <g id="text_31">
    <g clip-path="url(#p4b7cce4a4c)">
     <!-- n30 -->
     <g transform="translate(670.066229 605.790589)scale(0.12 -0.12)">
      <use xlink:href="#DejaVuSans-6e"/>
      <use x="63.378906" xlink:href="#DejaVuSans-33"/>
      <use x="127.001953" xlink:href="#DejaVuSans-30"/>
     </g>
    </g>
   </g>
   <g id="text_32">
    <g clip-path="url(#p4b7cce4a4c)">
     <!-- n31 -->
     <g transform="translate(648.296425 457.030258)scale(0.12 -0.12)">
      <use xlink:href="#DejaVuSans-6e"/>
      <use x="63.378906" xlink:href="#DejaVuSans-33"/>
      <use x="127.001953" xlink:href="#DejaVuSans-31"/>
     </g>
    </g>
   </g>
   <g id="text_33">
    <g clip-path="url(#p4b7cce4a4c)">
     <!-- n32 -->
     <g transform="translate(778.915251 605.790589)scale(0.12 -0.12)">
      <use xlink:href="#DejaVuSans-6e"/>
      <use x="63.378906" xlink:href="#DejaVuSans-33"/>
      <use x="127.001953" xlink:href="#DejaVuSans-32"/>
     </g>
    </g>
   </g>
   <g id="text_34">
    <g clip-path="url(#p4b7cce4a4c)">
     <!-- n33 -->
     <g transform="translate(735.375643 457.030258)scale(0.12 -0.12)">
      <use xlink:href="#DejaVuSans-6e"/>
      <use x="63.378906" xlink:href="#DejaVuSans-33"/>
      <use x="127.001953" xlink:href="#DejaVuSans-33"/>
     </g>
    </g>
   </g>
   <g id="text_35">
    <g clip-path="url(#p4b7cce4a4c)">
     <!-- n34 -->
     <g transform="translate(713.605838 308.269928)scale(0.12 -0.12)">
      <use xlink:href="#DejaVuSans-6e"/>
      <use x="63.378906" xlink:href="#DejaVuSans-33"/>
      <use x="127.001953" xlink:href="#DejaVuSans-34"/>
     </g>
    </g>
   </g>
   <g id="text_36">
    <g clip-path="url(#p4b7cce4a4c)">
     <!-- n35 -->
     <g transform="translate(757.145447 308.269928)scale(0.12 -0.12)">
      <use xlink:href="#DejaVuSans-6e"/>
      <use x="63.378906" xlink:href="#DejaVuSans-33"/>
      <use x="127.001953" xlink:href="#DejaVuSans-35"/>
     </g>
    </g>
   </g>
   <g id="text_37">
    <g clip-path="url(#p4b7cce4a4c)">
     <!-- n36 -->
     <g transform="translate(822.45486 457.030258)scale(0.12 -0.12)">
      <use xlink:href="#DejaVuSans-6e"/>
      <use x="63.378906" xlink:href="#DejaVuSans-33"/>
      <use x="127.001953" xlink:href="#DejaVuSans-36"/>
     </g>
    </g>
   </g>
   <g id="text_38">
    <g clip-path="url(#p4b7cce4a4c)">
     <!-- n37 -->
     <g transform="translate(800.685056 308.269928)scale(0.12 -0.12)">
      <use xlink:href="#DejaVuSans-6e"/>
      <use x="63.378906" xlink:href="#DejaVuSans-33"/>
      <use x="127.001953" xlink:href="#DejaVuSans-37"/>
     </g>
    </g>
   </g>
   <g id="text_39">
    <g clip-path="url(#p4b7cce4a4c)">
     <!-- n38 -->
     <g transform="translate(887.764274 754.550919)scale(0.12 -0.12)">
      <use xlink:href="#DejaVuSans-6e"/>
      <use x="63.378906" xlink:href="#DejaVuSans-33"/>
      <use x="127.001953" xlink:href="#DejaVuSans-38"/>
     </g>
    </g>
   </g>
   <g id="text_40">
    <g clip-path="url(#p4b7cce4a4c)">
     <!-- n39 -->
     <g transform="translate(865.994469 605.790589)scale(0.12 -0.12)">
      <use xlink:href="#DejaVuSans-6e"/>
      <use x="63.378906" xlink:href="#DejaVuSans-33"/>
      <use x="127.001953" xlink:href="#DejaVuSans-39"/>
     </g>
    </g>
   </g>
   <g id="text_41">
    <g clip-path="url(#p4b7cce4a4c)">
     <!-- n40 -->
     <g transform="translate(974.843492 1349.592242)scale(0.12 -0.12)">
      <use xlink:href="#DejaVuSans-6e"/>
      <use x="63.378906" xlink:href="#DejaVuSans-34"/>
      <use x="127.001953" xlink:href="#DejaVuSans-30"/>
     </g>
    </g>
   </g>
   <g id="text_42">
    <g clip-path="url(#p4b7cce4a4c)">
     <!-- n41 -->
     <g transform="translate(953.073687 1200.831911)scale(0.12 -0.12)">
      <use xlink:href="#DejaVuSans-6e"/>
      <use x="63.378906" xlink:href="#DejaVuSans-34"/>
      <use x="127.001953" xlink:href="#DejaVuSans-31"/>
     </g>
    </g>
   </g>
  </g>
 </g>
 <defs>
  <clipPath id="p4b7cce4a4c">
   <rect height="1800" width="1080" x="0" y="0"/>
  </clipPath>
 </defs>
</svg>
