<?xml version="1.0" encoding="utf-8" standalone="no"?>
<!DOCTYPE svg PUBLIC "-//W3C//DTD SVG 1.1//EN"
  "http://www.w3.org/Graphics/SVG/1.1/DTD/svg11.dtd">
<svg height="720pt" version="1.1" viewBox="0 0 720 720" width="720pt" xmlns="http://www.w3.org/2000/svg" xmlns:xlink="http://www.w3.org/1999/xlink">
 <metadata>
  <rdf:RDF xmlns:cc="http://creativecommons.org/ns#" xmlns:dc="http://purl.org/dc/elements/1.1/" xmlns:rdf="http://www.w3.org/1999/02/22-rdf-syntax-ns#">
   <cc:Work>
    <dc:type rdf:resource="http://purl.org/dc/dcmitype/StillImage"/>
    <dc:date>2022-04-15T14:40:50.353427</dc:date>
    <dc:format>image/svg+xml</dc:format>
    <dc:creator>
     <cc:Agent>
      <dc:title>Matplotlib v3.4.3, https://matplotlib.org/</dc:title>
     </cc:Agent>
    </dc:creator>
   </cc:Work>
  </rdf:RDF>
 </metadata>
 <defs>
  <style type="text/css">*{stroke-linecap:butt;stroke-linejoin:round;}</style>
 </defs>
 <g id="figure_1">
  <g id="patch_1">
   <path d="M 0 720 
L 720 720 
L 720 0 
L 0 0 
z
" style="fill:none;"/>
  </g>
  <g id="axes_1">
   <g id="patch_2">
    <path d="M 90 630 
L 648 630 
L 648 86.4 
L 90 86.4 
z
" style="fill:#ffffff;"/>
   </g>
   <g id="PathCollection_1">
    <defs>
     <path d="M 0 3 
C 0.795609 3 1.55874 2.683901 2.12132 2.12132 
C 2.683901 1.55874 3 0.795609 3 0 
C 3 -0.795609 2.683901 -1.55874 2.12132 -2.12132 
C 1.55874 -2.683901 0.795609 -3 0 -3 
C -0.795609 -3 -1.55874 -2.683901 -2.12132 -2.12132 
C -2.683901 -1.55874 -3 -0.795609 -3 0 
C -3 0.795609 -2.683901 1.55874 -2.12132 2.12132 
C -1.55874 2.683901 -0.795609 3 0 3 
z
" id="ma719e182fb" style="stroke:#0000ff;"/>
    </defs>
    <g clip-path="url(#p38fb712a31)">
     <use style="fill:#0000ff;stroke:#0000ff;" x="505.389365" xlink:href="#ma719e182fb" y="291.851515"/>
    </g>
   </g>
   <g id="PathCollection_2">
    <g clip-path="url(#p38fb712a31)">
     <use style="fill:#0000ff;stroke:#0000ff;" x="373.785592" xlink:href="#ma719e182fb" y="511.487879"/>
    </g>
   </g>
   <g id="PathCollection_3">
    <g clip-path="url(#p38fb712a31)">
     <use style="fill:#0000ff;stroke:#0000ff;" x="340.286449" xlink:href="#ma719e182fb" y="374.215152"/>
    </g>
   </g>
   <g id="PathCollection_4">
    <g clip-path="url(#p38fb712a31)">
     <use style="fill:#0000ff;stroke:#0000ff;" x="148.862779" xlink:href="#ma719e182fb" y="216.351515"/>
    </g>
   </g>
   <g id="PathCollection_5">
    <g clip-path="url(#p38fb712a31)">
     <use style="fill:#0000ff;stroke:#0000ff;" x="165.61235" xlink:href="#ma719e182fb" y="559.533333"/>
    </g>
   </g>
   <g id="PathCollection_6">
    <g clip-path="url(#p38fb712a31)">
     <use style="fill:#0000ff;stroke:#0000ff;" x="486.246998" xlink:href="#ma719e182fb" y="248.381818"/>
    </g>
   </g>
   <g id="PathCollection_7">
    <g clip-path="url(#p38fb712a31)">
     <use style="fill:#0000ff;stroke:#0000ff;" x="230.217839" xlink:href="#ma719e182fb" y="529.790909"/>
    </g>
   </g>
   <g id="PathCollection_8">
    <g clip-path="url(#p38fb712a31)">
     <use style="fill:#0000ff;stroke:#0000ff;" x="275.680961" xlink:href="#ma719e182fb" y="255.245455"/>
    </g>
   </g>
   <g id="PathCollection_9">
    <g clip-path="url(#p38fb712a31)">
     <use style="fill:#0000ff;stroke:#0000ff;" x="223.039451" xlink:href="#ma719e182fb" y="570.972727"/>
    </g>
   </g>
   <g id="PathCollection_10">
    <g clip-path="url(#p38fb712a31)">
     <use style="fill:#0000ff;stroke:#0000ff;" x="179.969125" xlink:href="#ma719e182fb" y="246.093939"/>
    </g>
   </g>
   <g id="PathCollection_11">
    <g clip-path="url(#p38fb712a31)">
     <use style="fill:#0000ff;stroke:#0000ff;" x="397.713551" xlink:href="#ma719e182fb" y="440.563636"/>
    </g>
   </g>
   <g id="PathCollection_12">
    <g clip-path="url(#p38fb712a31)">
     <use style="fill:#0000ff;stroke:#0000ff;" x="354.643225" xlink:href="#ma719e182fb" y="367.351515"/>
    </g>
   </g>
   <g id="PathCollection_13">
    <g clip-path="url(#p38fb712a31)">
     <use style="fill:#0000ff;stroke:#0000ff;" x="203.897084" xlink:href="#ma719e182fb" y="410.821212"/>
    </g>
   </g>
   <g id="PathCollection_14">
    <g clip-path="url(#p38fb712a31)">
     <use style="fill:#0000ff;stroke:#0000ff;" x="361.821612" xlink:href="#ma719e182fb" y="172.881818"/>
    </g>
   </g>
   <g id="PathCollection_15">
    <g clip-path="url(#p38fb712a31)">
     <use style="fill:#0000ff;stroke:#0000ff;" x="407.284734" xlink:href="#ma719e182fb" y="586.987879"/>
    </g>
   </g>
   <g id="PathCollection_16">
    <g clip-path="url(#p38fb712a31)">
     <use style="fill:#0000ff;stroke:#0000ff;" x="476.675815" xlink:href="#ma719e182fb" y="417.684848"/>
    </g>
   </g>
   <g id="PathCollection_17">
    <g clip-path="url(#p38fb712a31)">
     <use style="fill:#0000ff;stroke:#0000ff;" x="337.893654" xlink:href="#ma719e182fb" y="387.942424"/>
    </g>
   </g>
   <g id="PathCollection_18">
    <g clip-path="url(#p38fb712a31)">
     <use style="fill:#0000ff;stroke:#0000ff;" x="282.859348" xlink:href="#ma719e182fb" y="458.866667"/>
    </g>
   </g>
   <g id="PathCollection_19">
    <g clip-path="url(#p38fb712a31)">
     <use style="fill:#0000ff;stroke:#0000ff;" x="187.147513" xlink:href="#ma719e182fb" y="296.427273"/>
    </g>
   </g>
   <g id="PathCollection_20">
    <g clip-path="url(#p38fb712a31)">
     <use style="fill:#0000ff;stroke:#0000ff;" x="517.353345" xlink:href="#ma719e182fb" y="431.412121"/>
    </g>
   </g>
   <g id="PathCollection_21">
    <g clip-path="url(#p38fb712a31)">
     <use style="fill:#0000ff;stroke:#0000ff;" x="479.068611" xlink:href="#ma719e182fb" y="381.078788"/>
    </g>
   </g>
   <g id="patch_3">
    <path clip-path="url(#p38fb712a31)" d="M 505.389365 291.851515 
L 572.38765 291.851515 
L 572.38765 255.245455 
L 505.389365 255.245455 
z
" style="fill:none;stroke:#0000ff;stroke-linejoin:miter;"/>
   </g>
   <g id="patch_4">
    <path clip-path="url(#p38fb712a31)" d="M 373.785592 511.487879 
L 481.461407 511.487879 
L 481.461407 477.169697 
L 373.785592 477.169697 
z
" style="fill:none;stroke:#0000ff;stroke-linejoin:miter;"/>
   </g>
   <g id="patch_5">
    <path clip-path="url(#p38fb712a31)" d="M 225.432247 374.215152 
L 340.286449 374.215152 
L 340.286449 335.321212 
L 225.432247 335.321212 
z
" style="fill:none;stroke:#0000ff;stroke-linejoin:miter;"/>
   </g>
   <g id="patch_6">
    <path clip-path="url(#p38fb712a31)" d="M 148.862779 216.351515 
L 213.468268 216.351515 
L 213.468268 111.109091 
L 148.862779 111.109091 
z
" style="fill:none;stroke:#0000ff;stroke-linejoin:miter;"/>
   </g>
   <g id="patch_7">
    <path clip-path="url(#p38fb712a31)" d="M 136.898799 605.290909 
L 179.969125 605.290909 
L 179.969125 559.533333 
L 136.898799 559.533333 
z
" style="fill:none;stroke:#0000ff;stroke-linejoin:miter;"/>
   </g>
   <g id="patch_8">
    <path clip-path="url(#p38fb712a31)" d="M 486.246998 248.381818 
L 622.636364 248.381818 
L 622.636364 209.487879 
L 486.246998 209.487879 
z
" style="fill:none;stroke:#0000ff;stroke-linejoin:miter;"/>
   </g>
   <g id="patch_9">
    <path clip-path="url(#p38fb712a31)" d="M 132.113208 529.790909 
L 230.217839 529.790909 
L 230.217839 440.563636 
L 132.113208 440.563636 
z
" style="fill:none;stroke:#0000ff;stroke-linejoin:miter;"/>
   </g>
   <g id="patch_10">
    <path clip-path="url(#p38fb712a31)" d="M 275.680961 298.715152 
L 402.499142 298.715152 
L 402.499142 255.245455 
L 275.680961 255.245455 
z
" style="fill:none;stroke:#0000ff;stroke-linejoin:miter;"/>
   </g>
   <g id="patch_11">
    <path clip-path="url(#p38fb712a31)" d="M 208.682676 593.851515 
L 237.396226 593.851515 
L 237.396226 570.972727 
L 208.682676 570.972727 
z
" style="fill:none;stroke:#0000ff;stroke-linejoin:miter;"/>
   </g>
   <g id="patch_12">
    <path clip-path="url(#p38fb712a31)" d="M 156.041166 335.321212 
L 179.969125 335.321212 
L 179.969125 246.093939 
L 156.041166 246.093939 
z
" style="fill:none;stroke:#0000ff;stroke-linejoin:miter;"/>
   </g>
   <g id="patch_13">
    <path clip-path="url(#p38fb712a31)" d="M 361.821612 468.018182 
L 469.497427 468.018182 
L 469.497427 440.563636 
L 361.821612 440.563636 
z
" style="fill:none;stroke:#0000ff;stroke-linejoin:miter;"/>
   </g>
   <g id="patch_14">
    <path clip-path="url(#p38fb712a31)" d="M 354.643225 367.351515 
L 445.569468 367.351515 
L 445.569468 339.89697 
L 354.643225 339.89697 
z
" style="fill:none;stroke:#0000ff;stroke-linejoin:miter;"/>
   </g>
   <g id="patch_15">
    <path clip-path="url(#p38fb712a31)" d="M 115.363636 410.821212 
L 203.897084 410.821212 
L 203.897084 387.942424 
L 115.363636 387.942424 
z
" style="fill:none;stroke:#0000ff;stroke-linejoin:miter;"/>
   </g>
   <g id="patch_16">
    <path clip-path="url(#p38fb712a31)" d="M 361.821612 172.881818 
L 464.711835 172.881818 
L 464.711835 111.109091 
L 361.821612 111.109091 
z
" style="fill:none;stroke:#0000ff;stroke-linejoin:miter;"/>
   </g>
   <g id="patch_17">
    <path clip-path="url(#p38fb712a31)" d="M 407.284734 586.987879 
L 491.03259 586.987879 
L 491.03259 564.109091 
L 407.284734 564.109091 
z
" style="fill:none;stroke:#0000ff;stroke-linejoin:miter;"/>
   </g>
   <g id="patch_18">
    <path clip-path="url(#p38fb712a31)" d="M 364.214408 417.684848 
L 476.675815 417.684848 
L 476.675815 381.078788 
L 364.214408 381.078788 
z
" style="fill:none;stroke:#0000ff;stroke-linejoin:miter;"/>
   </g>
   <g id="patch_19">
    <path clip-path="url(#p38fb712a31)" d="M 261.324185 429.124242 
L 337.893654 429.124242 
L 337.893654 387.942424 
L 261.324185 387.942424 
z
" style="fill:none;stroke:#0000ff;stroke-linejoin:miter;"/>
   </g>
   <g id="patch_20">
    <path clip-path="url(#p38fb712a31)" d="M 244.574614 545.806061 
L 302.001715 545.806061 
L 302.001715 458.866667 
L 244.574614 458.866667 
z
" style="fill:none;stroke:#0000ff;stroke-linejoin:miter;"/>
   </g>
   <g id="patch_21">
    <path clip-path="url(#p38fb712a31)" d="M 187.147513 296.427273 
L 244.574614 296.427273 
L 244.574614 236.942424 
L 187.147513 236.942424 
z
" style="fill:none;stroke:#0000ff;stroke-linejoin:miter;"/>
   </g>
   <g id="patch_22">
    <path clip-path="url(#p38fb712a31)" d="M 517.353345 511.487879 
L 548.459691 511.487879 
L 548.459691 431.412121 
L 517.353345 431.412121 
z
" style="fill:none;stroke:#0000ff;stroke-linejoin:miter;"/>
   </g>
   <g id="patch_23">
    <path clip-path="url(#p38fb712a31)" d="M 479.068611 415.39697 
L 512.567753 415.39697 
L 512.567753 381.078788 
L 479.068611 381.078788 
z
" style="fill:none;stroke:#0000ff;stroke-linejoin:miter;"/>
   </g>
   <g id="matplotlib.axis_1">
    <g id="xtick_1">
     <g id="line2d_1">
      <defs>
       <path d="M 0 0 
L 0 3.5 
" id="m9b662c5b23" style="stroke:#000000;stroke-width:0.8;"/>
      </defs>
      <g>
       <use style="stroke:#000000;stroke-width:0.8;" x="182.361921" xlink:href="#m9b662c5b23" y="630"/>
      </g>
     </g>
     <g id="text_1">
      <!-- 50 -->
      <g transform="translate(175.999421 644.598438)scale(0.1 -0.1)">
       <defs>
        <path d="M 691 4666 
L 3169 4666 
L 3169 4134 
L 1269 4134 
L 1269 2991 
Q 1406 3038 1543 3061 
Q 1681 3084 1819 3084 
Q 2600 3084 3056 2656 
Q 3513 2228 3513 1497 
Q 3513 744 3044 326 
Q 2575 -91 1722 -91 
Q 1428 -91 1123 -41 
Q 819 9 494 109 
L 494 744 
Q 775 591 1075 516 
Q 1375 441 1709 441 
Q 2250 441 2565 725 
Q 2881 1009 2881 1497 
Q 2881 1984 2565 2268 
Q 2250 2553 1709 2553 
Q 1456 2553 1204 2497 
Q 953 2441 691 2322 
L 691 4666 
z
" id="DejaVuSans-35" transform="scale(0.015625)"/>
        <path d="M 2034 4250 
Q 1547 4250 1301 3770 
Q 1056 3291 1056 2328 
Q 1056 1369 1301 889 
Q 1547 409 2034 409 
Q 2525 409 2770 889 
Q 3016 1369 3016 2328 
Q 3016 3291 2770 3770 
Q 2525 4250 2034 4250 
z
M 2034 4750 
Q 2819 4750 3233 4129 
Q 3647 3509 3647 2328 
Q 3647 1150 3233 529 
Q 2819 -91 2034 -91 
Q 1250 -91 836 529 
Q 422 1150 422 2328 
Q 422 3509 836 4129 
Q 1250 4750 2034 4750 
z
" id="DejaVuSans-30" transform="scale(0.015625)"/>
       </defs>
       <use xlink:href="#DejaVuSans-35"/>
       <use x="63.623047" xlink:href="#DejaVuSans-30"/>
      </g>
     </g>
    </g>
    <g id="xtick_2">
     <g id="line2d_2">
      <g>
       <use style="stroke:#000000;stroke-width:0.8;" x="302.001715" xlink:href="#m9b662c5b23" y="630"/>
      </g>
     </g>
     <g id="text_2">
      <!-- 100 -->
      <g transform="translate(292.457965 644.598438)scale(0.1 -0.1)">
       <defs>
        <path d="M 794 531 
L 1825 531 
L 1825 4091 
L 703 3866 
L 703 4441 
L 1819 4666 
L 2450 4666 
L 2450 531 
L 3481 531 
L 3481 0 
L 794 0 
L 794 531 
z
" id="DejaVuSans-31" transform="scale(0.015625)"/>
       </defs>
       <use xlink:href="#DejaVuSans-31"/>
       <use x="63.623047" xlink:href="#DejaVuSans-30"/>
       <use x="127.246094" xlink:href="#DejaVuSans-30"/>
      </g>
     </g>
    </g>
    <g id="xtick_3">
     <g id="line2d_3">
      <g>
       <use style="stroke:#000000;stroke-width:0.8;" x="421.641509" xlink:href="#m9b662c5b23" y="630"/>
      </g>
     </g>
     <g id="text_3">
      <!-- 150 -->
      <g transform="translate(412.097759 644.598438)scale(0.1 -0.1)">
       <use xlink:href="#DejaVuSans-31"/>
       <use x="63.623047" xlink:href="#DejaVuSans-35"/>
       <use x="127.246094" xlink:href="#DejaVuSans-30"/>
      </g>
     </g>
    </g>
    <g id="xtick_4">
     <g id="line2d_4">
      <g>
       <use style="stroke:#000000;stroke-width:0.8;" x="541.281304" xlink:href="#m9b662c5b23" y="630"/>
      </g>
     </g>
     <g id="text_4">
      <!-- 200 -->
      <g transform="translate(531.737554 644.598438)scale(0.1 -0.1)">
       <defs>
        <path d="M 1228 531 
L 3431 531 
L 3431 0 
L 469 0 
L 469 531 
Q 828 903 1448 1529 
Q 2069 2156 2228 2338 
Q 2531 2678 2651 2914 
Q 2772 3150 2772 3378 
Q 2772 3750 2511 3984 
Q 2250 4219 1831 4219 
Q 1534 4219 1204 4116 
Q 875 4013 500 3803 
L 500 4441 
Q 881 4594 1212 4672 
Q 1544 4750 1819 4750 
Q 2544 4750 2975 4387 
Q 3406 4025 3406 3419 
Q 3406 3131 3298 2873 
Q 3191 2616 2906 2266 
Q 2828 2175 2409 1742 
Q 1991 1309 1228 531 
z
" id="DejaVuSans-32" transform="scale(0.015625)"/>
       </defs>
       <use xlink:href="#DejaVuSans-32"/>
       <use x="63.623047" xlink:href="#DejaVuSans-30"/>
       <use x="127.246094" xlink:href="#DejaVuSans-30"/>
      </g>
     </g>
    </g>
   </g>
   <g id="matplotlib.axis_2">
    <g id="ytick_1">
     <g id="line2d_5">
      <defs>
       <path d="M 0 0 
L -3.5 0 
" id="m82aeed2144" style="stroke:#000000;stroke-width:0.8;"/>
      </defs>
      <g>
       <use style="stroke:#000000;stroke-width:0.8;" x="90" xlink:href="#m82aeed2144" y="623.593939"/>
      </g>
     </g>
     <g id="text_5">
      <!-- 0 -->
      <g transform="translate(76.6375 627.393158)scale(0.1 -0.1)">
       <use xlink:href="#DejaVuSans-30"/>
      </g>
     </g>
    </g>
    <g id="ytick_2">
     <g id="line2d_6">
      <g>
       <use style="stroke:#000000;stroke-width:0.8;" x="90" xlink:href="#m82aeed2144" y="509.2"/>
      </g>
     </g>
     <g id="text_6">
      <!-- 50 -->
      <g transform="translate(70.275 512.999219)scale(0.1 -0.1)">
       <use xlink:href="#DejaVuSans-35"/>
       <use x="63.623047" xlink:href="#DejaVuSans-30"/>
      </g>
     </g>
    </g>
    <g id="ytick_3">
     <g id="line2d_7">
      <g>
       <use style="stroke:#000000;stroke-width:0.8;" x="90" xlink:href="#m82aeed2144" y="394.806061"/>
      </g>
     </g>
     <g id="text_7">
      <!-- 100 -->
      <g transform="translate(63.9125 398.605279)scale(0.1 -0.1)">
       <use xlink:href="#DejaVuSans-31"/>
       <use x="63.623047" xlink:href="#DejaVuSans-30"/>
       <use x="127.246094" xlink:href="#DejaVuSans-30"/>
      </g>
     </g>
    </g>
    <g id="ytick_4">
     <g id="line2d_8">
      <g>
       <use style="stroke:#000000;stroke-width:0.8;" x="90" xlink:href="#m82aeed2144" y="280.412121"/>
      </g>
     </g>
     <g id="text_8">
      <!-- 150 -->
      <g transform="translate(63.9125 284.21134)scale(0.1 -0.1)">
       <use xlink:href="#DejaVuSans-31"/>
       <use x="63.623047" xlink:href="#DejaVuSans-35"/>
       <use x="127.246094" xlink:href="#DejaVuSans-30"/>
      </g>
     </g>
    </g>
    <g id="ytick_5">
     <g id="line2d_9">
      <g>
       <use style="stroke:#000000;stroke-width:0.8;" x="90" xlink:href="#m82aeed2144" y="166.018182"/>
      </g>
     </g>
     <g id="text_9">
      <!-- 200 -->
      <g transform="translate(63.9125 169.817401)scale(0.1 -0.1)">
       <use xlink:href="#DejaVuSans-32"/>
       <use x="63.623047" xlink:href="#DejaVuSans-30"/>
       <use x="127.246094" xlink:href="#DejaVuSans-30"/>
      </g>
     </g>
    </g>
   </g>
   <g id="patch_24">
    <path d="M 90 630 
L 90 86.4 
" style="fill:none;stroke:#000000;stroke-linecap:square;stroke-linejoin:miter;stroke-width:0.8;"/>
   </g>
   <g id="patch_25">
    <path d="M 648 630 
L 648 86.4 
" style="fill:none;stroke:#000000;stroke-linecap:square;stroke-linejoin:miter;stroke-width:0.8;"/>
   </g>
   <g id="patch_26">
    <path d="M 90 630 
L 648 630 
" style="fill:none;stroke:#000000;stroke-linecap:square;stroke-linejoin:miter;stroke-width:0.8;"/>
   </g>
   <g id="patch_27">
    <path d="M 90 86.4 
L 648 86.4 
" style="fill:none;stroke:#000000;stroke-linecap:square;stroke-linejoin:miter;stroke-width:0.8;"/>
   </g>
  </g>
 </g>
 <defs>
  <clipPath id="p38fb712a31">
   <rect height="543.6" width="558" x="90" y="86.4"/>
  </clipPath>
 </defs>
</svg>
